<svg xmlns="http://www.w3.org/2000/svg" xmlns:xlink="http://www.w3.org/1999/xlink" width="37" height="37" viewBox="0 0 37 37">
  <defs>
    <clipPath id="clip-path">
      <rect id="Rectangle_45" data-name="Rectangle 45" width="37" height="37" transform="translate(0)" fill="#fff"/>
    </clipPath>
  </defs>
  <g id="svgexport-2" transform="translate(0)" clip-path="url(#clip-path)">
    <g id="Group_54" data-name="Group 54" transform="translate(0.175 7.872)">
      <path id="Path_1075" data-name="Path 1075" d="M34.706,21.689h-.5a2.956,2.956,0,0,0-5.772,0h-.508V16.134h6.782v5.555ZM31.307,24a1.674,1.674,0,1,1,1.68-1.671A1.678,1.678,0,0,1,31.307,24ZM27.92,12.022h4.265a.6.6,0,0,1,.507.288l1.523,2.54H27.923l0-2.828Zm-1.28-.64V21.689h-7a2.952,2.952,0,0,0-5.768,0H12.525V10.107a1.825,1.825,0,0,1,1.824-1.823H24.819a1.824,1.824,0,0,1,1.824,1.823l0,1.275ZM18.429,22.335a1.637,1.637,0,1,1,0-.017Zm17.536-6.92a.642.642,0,0,0-.058-.214c-.007-.012,0-.028-.011-.04L33.79,11.653a1.878,1.878,0,0,0-1.6-.911H27.92V10.1a3.107,3.107,0,0,0-3.1-3.1H14.349a3.107,3.107,0,0,0-3.1,3.108V22.33a.64.64,0,0,0,.639.641H13.87a2.952,2.952,0,0,0,5.763,0h8.8a2.951,2.951,0,0,0,5.758,0h1.158a.641.641,0,0,0,.639-.641V15.5a.613.613,0,0,0-.02-.09Zm-35.4-.543h9a.562.562,0,1,1,0,1.125h-9a.562.562,0,1,1,0-1.125Zm5.623-4.5H9.559a.562.562,0,1,1,0,1.125H6.185a.562.562,0,1,1,0-1.125Zm-2.249,9H9.559a.562.562,0,1,1,0,1.125H3.936a.562.562,0,1,1,0-1.125Z" transform="translate(0 -7)" fill="#fff"/>
    </g>
  </g>
</svg>
