<svg xmlns="http://www.w3.org/2000/svg" width="26.052" height="24.049" viewBox="0 0 26.052 24.049">
  <path id="print" d="M6.012,22.044H20.04V18.037H6.012Zm0-10.02H20.04V6.012H17.535a1.5,1.5,0,0,1-1.5-1.5V2H6.012v10.02Zm18.036,1a1.016,1.016,0,1,0-.3.7.963.963,0,0,0,.3-.7Zm2,0V19.54a.509.509,0,0,1-.5.5H22.043v2.505a1.5,1.5,0,0,1-1.5,1.5H5.511a1.5,1.5,0,0,1-1.5-1.5V20.041H.5a.482.482,0,0,1-.352-.149A.48.48,0,0,1,0,19.539V13.026A2.893,2.893,0,0,1,.884,10.9a2.9,2.9,0,0,1,2.122-.885h1V1.5A1.449,1.449,0,0,1,4.447.439,1.449,1.449,0,0,1,5.511,0H16.032A3.614,3.614,0,0,1,17.41.313a3.643,3.643,0,0,1,1.19.751l2.379,2.379a3.637,3.637,0,0,1,.751,1.19,3.629,3.629,0,0,1,.313,1.378v4.008h1a3.021,3.021,0,0,1,3.006,3.007Z" transform="translate(0 0)" fill="#34871b"/>
</svg>
