<svg xmlns="http://www.w3.org/2000/svg" width="18.373" height="21.199" viewBox="0 0 18.373 21.199">
  <g id="trash" transform="translate(-3.375)">
    <path id="Path_1120" data-name="Path 1120" d="M11.957,12.375a.707.707,0,0,1,.707.707v8.48a.707.707,0,1,1-1.413,0v-8.48A.707.707,0,0,1,11.957,12.375Zm3.533,0a.707.707,0,0,1,.707.707v8.48a.707.707,0,1,1-1.413,0v-8.48A.707.707,0,0,1,15.49,12.375Zm4.24.707a.707.707,0,1,0-1.413,0v8.48a.707.707,0,1,0,1.413,0Z" transform="translate(-2.928 -4.602)"/>
    <path id="Path_1121" data-name="Path 1121" d="M21.748,4.24a1.413,1.413,0,0,1-1.413,1.413h-.707v12.72A2.827,2.827,0,0,1,16.8,21.2H8.322a2.827,2.827,0,0,1-2.827-2.827V5.653H4.788A1.413,1.413,0,0,1,3.375,4.24V2.827A1.413,1.413,0,0,1,4.788,1.413H9.735A1.413,1.413,0,0,1,11.148,0h2.827a1.413,1.413,0,0,1,1.413,1.413h4.947a1.413,1.413,0,0,1,1.413,1.413ZM7.075,5.653l-.167.084V18.373a1.413,1.413,0,0,0,1.413,1.413H16.8a1.413,1.413,0,0,0,1.413-1.413V5.737l-.166-.084ZM4.788,4.24V2.827H20.335V4.24Z" transform="translate(0)" fill-rule="evenodd"/>
  </g>
</svg>
